<svg width="8" height="10" viewBox="0 0 8 10" fill="none" xmlns="http://www.w3.org/2000/svg">
<path opacity="0.25" d="M3.65836 9.8654C3.74827 9.95128 3.8738 10 4.00518 10C4.13656 10 4.26209 9.95128 4.352 9.8654L7.82018 6.75629C7.98228 6.64326 8.04266 6.44839 7.96882 6.2766C7.88775 6.0982 7.68765 5.98699 7.47336 6.00122H0.536998C0.322708 5.98699 0.12261 6.0982 0.041544 6.2766C-0.0414718 6.44082 0.00248429 6.63427 0.150544 6.75629L3.65836 9.8654Z" fill="black"/>
<path opacity="0.25" d="M3.65836 0.134597C3.74827 0.0487165 3.8738 0 4.00518 0C4.13656 0 4.26209 0.0487165 4.352 0.134597L7.82018 3.24371C7.98228 3.35674 8.04266 3.55161 7.96882 3.7234C7.88775 3.9018 7.68765 4.01301 7.47336 3.99878H0.536998C0.322708 4.01301 0.12261 3.9018 0.041544 3.7234C-0.0414718 3.55918 0.00248429 3.36573 0.150544 3.24371L3.65836 0.134597Z" fill="black"/>
</svg>
