<svg width="27" height="39" viewBox="0 0 27 39" fill="#E95D41" xmlns="http://www.w3.org/2000/svg">
<path d="M23.048 0.0019662H9.41346C9.10912 0.00289884 8.81627 0.131911 8.59106 0.364137L0.404883 8.72046C0.314206 8.8159 0.239421 8.92906 0.184089 9.05465L0.110398 9.16595C0.0389009 9.3506 0.00136752 9.54956 0 9.75101V34.82C0.0416392 35.9665 0.479669 37.048 1.21962 37.8302C1.95927 38.6123 2.94108 39.0321 3.95192 38.9982H23.0481C24.0589 39.032 25.0407 38.6124 25.7804 37.8302C26.5203 37.048 26.9583 35.9665 27 34.82V4.18013C26.9584 3.03364 26.5203 1.95209 25.7804 1.16994C25.0407 0.387782 24.0588 -0.0319366 23.048 0.0019662ZM8.59085 4.18013V8.35829H4.43051L8.59085 4.18013ZM20.8634 16.7146C20.8634 17.0839 20.7341 17.4383 20.504 17.6995C20.2739 17.9606 19.9616 18.1073 19.6362 18.1073H7.36359C6.92501 18.1073 6.51986 17.8419 6.30071 17.411C6.08156 16.9801 6.08156 16.4491 6.30071 16.0183C6.51986 15.5874 6.92502 15.3219 7.36359 15.3219H19.6362C19.9616 15.3219 20.2739 15.4686 20.504 15.7298C20.7341 15.9909 20.8634 16.3453 20.8634 16.7146ZM20.8634 23.6782C20.8634 24.0475 20.7341 24.4019 20.504 24.6631C20.2739 24.9242 19.9616 25.0709 19.6362 25.0709H7.36359C6.92501 25.0709 6.51986 24.8055 6.30071 24.3746C6.08156 23.9437 6.08156 23.4127 6.30071 22.9819C6.51986 22.551 6.92502 22.2855 7.36359 22.2855H19.6362C19.9616 22.2855 20.2739 22.4322 20.504 22.6934C20.7341 22.9545 20.8634 23.3089 20.8634 23.6782ZM20.8634 30.6418C20.8634 31.0111 20.7341 31.3656 20.504 31.6267C20.2739 31.8878 19.9616 32.0346 19.6362 32.0346H7.36359C6.92501 32.0346 6.51986 31.7691 6.30071 31.3382C6.08156 30.9073 6.08156 30.3763 6.30071 29.9455C6.51986 29.5146 6.92502 29.2491 7.36359 29.2491H19.6362C19.9616 29.2491 20.2739 29.3958 20.504 29.657C20.7341 29.9181 20.8634 30.2725 20.8634 30.6418Z" />
</svg>
